<svg width="24" height="24" version="1.1" viewBox="0 0 24 24" xmlns="http://www.w3.org/2000/svg">
 <g>
  <path d="m6.6094 1.4277a0.75008 0.75008 0 0 0-0.36523 0.11719c-3.2674 2.1035-5.2441 5.721-5.2441 9.6016 1.2e-6 6.303 5.1375 11.428 11.453 11.428 4.539-1.23e-4 8.6538-2.6781 10.482-6.8242a0.75008 0.75008 0 0 0-1.0918-0.93359c-1.6087 1.0358-3.4834 1.5859-5.3984 1.5859-5.5069-1e-6 -9.9531-4.4354-9.9531-9.9258 8.5e-5 -1.3761 0.28807-2.7383 0.84375-3.998a0.75008 0.75008 0 0 0-0.72656-1.0508zm-1.1191 2.6914c-0.17052 0.78906-0.498 1.5459-0.49805 2.3574-4e-7 6.303 5.1375 11.426 11.453 11.426 1.3301-2.7e-5 2.6162-0.30254 3.8555-0.74805-1.8562 2.4121-4.7089 3.9198-7.8477 3.9199-5.5069-1e-6 -9.9531-4.4374-9.9531-9.9277 3.41e-5 -2.6812 1.1177-5.1821 2.9902-7.0273z" style="color-rendering:auto;color:#000000;dominant-baseline:auto;fill-rule:evenodd;font-feature-settings:normal;font-variant-alternates:normal;font-variant-caps:normal;font-variant-east-asian:normal;font-variant-ligatures:normal;font-variant-numeric:normal;font-variant-position:normal;font-variation-settings:normal;image-rendering:auto;inline-size:0;isolation:auto;mix-blend-mode:normal;shape-margin:0;shape-padding:0;shape-rendering:auto;solid-color:#000000;stop-color:#000000;text-decoration-color:#000000;text-decoration-line:none;text-decoration-style:solid;text-indent:0;text-orientation:mixed;text-transform:none;white-space:normal"/>
 </g>
</svg>
